<?xml version="1.0" encoding="utf-8"?>
<!-- Generator: Adobe Illustrator 25.0.0, SVG Export Plug-In . SVG Version: 6.00 Build 0)  -->
<svg version="1.1" id="Calque_1" xmlns="http://www.w3.org/2000/svg" xmlns:xlink="http://www.w3.org/1999/xlink" x="0px" y="0px"
	 viewBox="0 0 360.1 359.4" style="enable-background:new 0 0 360.1 359.4;" xml:space="preserve">
<style type="text/css">
	.st0{fill:#217D85;}
</style>
<path class="st0" d="M248.7,359.3c0-46.4,0-92.4,0-138.8c15.5,0,30.9,0,46.8,0c2.4-18.2,4.7-36.1,7.1-54.5c-18.1,0-35.8,0-53.5,0
	c-0.3-0.9-0.5-1.2-0.5-1.6c0.2-13.7-0.1-27.5,0.7-41.1c0.6-10.1,6.8-16.2,16.9-17.5c7-0.9,14.2-0.7,21.3-0.9c5.4-0.1,10.7,0,16.3,0
	c0-16.3,0-32.3,0-48.8c-20.1-1.1-40.2-4.1-60.2,0c-27.4,5.7-46.5,25.2-49.7,53c-2,16.8-1.2,33.9-1.7,50.8c-0.1,1.8,0,3.7,0,5.9
	c-8.1,0-15.8,0-23.5,0c-7.6,0-15.2,0-23,0c0,18.3,0,36.1,0,54.3c15.4,0,30.7,0,46.2,0c0,46.5,0,92.6,0,139.2c-1.4,0-2.7,0-4,0
	c-55.4,0-110.8,0-166.2,0C8.2,359.4,0,351.3,0,337.8C0,232.4,0,126.9,0,21.5C0,8,8,0,21.4,0c105.8,0,211.5,0,317.3,0
	c13.1,0,21.3,8.2,21.3,21.3c0,105.6,0,211.2,0,316.7c0,13-8.4,21.4-21.3,21.4c-28.9,0-57.8,0-86.6,0
	C251.1,359.4,250.1,359.3,248.7,359.3z"/>
</svg>
