<?xml version="1.0" encoding="utf-8"?>
<!-- Generator: Adobe Illustrator 25.0.0, SVG Export Plug-In . SVG Version: 6.00 Build 0)  -->
<svg version="1.1" id="Calque_1" xmlns="http://www.w3.org/2000/svg" xmlns:xlink="http://www.w3.org/1999/xlink" x="0px" y="0px"
	 viewBox="0 0 384 383.5" style="enable-background:new 0 0 384 383.5;" xml:space="preserve">
<style type="text/css">
	.st0{fill:#217D85;}
</style>
<path class="st0" d="M240.8,383.5c-38.2,0-76.5,0-114.8,0c-1.7-0.2-3.4-0.4-5.2-0.6c-11.5-1.3-23.2-1.9-34.5-4
	c-32.3-6.2-56.9-23.4-72.1-52.9C6,309.9,3,292.5,1.5,274.8c-0.5-6.4-1-12.9-1.5-19.3c0-43.2,0-86.3,0-129.5c0.2-1.8,0.4-3.7,0.6-5.5
	c1.3-11.4,1.9-22.9,4-34.1c4.8-26.6,18-48.4,40.1-64.4c18.8-13.5,40.3-19.2,63-20.1c56.2-2.4,112.5-2.5,168.7,0
	c18,0.8,35.4,4.8,51.5,13.1c30.9,15.8,46.8,42.3,52.1,75.4c2.4,15.3,2.3,31,3.4,46.6c0.2,2.6,0.4,5.2,0.6,7.8c0,31.7,0,63.4,0,95.1
	c-0.2,4.7-0.6,9.4-0.7,14.1c-0.3,15.6-0.9,31.2-4.5,46.4c-9.9,41.1-34.9,67.4-76.3,77.6c-15.6,3.9-31.6,4.5-47.6,4.9
	C250.2,382.9,245.5,383.3,240.8,383.5z M348.7,186.2c0.2,0,0.3,0,0.5,0c0-14.1,0.4-28.2-0.1-42.3c-0.7-16.9-1.1-34-3.6-50.7
	c-3.7-24.3-17.1-41.9-40.9-50.5c-12.8-4.6-26.1-6.9-39.6-7.3c-26.5-0.7-53-1-79.4-1.2c-19.1-0.1-38.2,0.1-57.4,0.5
	c-14,0.2-28,0.9-41.6,4.4c-23.4,6.1-39,20.2-46.1,43.5c-5,16.3-6.3,33.1-6.4,49.9c-0.3,40.4-0.4,80.8,0,121.3
	c0.1,12.2,1.3,24.5,3.7,36.4c6,29.9,24,48.9,54.5,54.3c12.6,2.2,25.5,3.5,38.3,3.7c36.2,0.6,72.5,0.9,108.7,0.5
	c16.7-0.2,33.5-1.2,50-3.5c29.4-4.3,49.1-22.8,55.2-51.1c2.4-11.1,3.8-22.7,4.1-34.1C349.2,235.3,348.7,210.8,348.7,186.2z"/>
<path class="st0" d="M290.5,192c-0.2,54.6-44.4,98.4-98.9,98.1c-54.5-0.3-98.2-44.3-98-98.6c0.2-54.4,44.6-98.3,98.7-97.9
	C247,93.9,290.7,137.7,290.5,192z M192.2,128c-35.4-0.1-63.9,28.3-64,63.5c-0.1,35.3,28.3,63.9,63.6,64
	c35.6,0.1,64.2-28.3,64.2-63.8C255.9,156.4,227.6,128.1,192.2,128z"/>
<path class="st0" d="M294.7,66.7c12.7,0.1,22.8,10.2,22.8,22.9c0,12.8-10.3,23-23.1,23c-12.7-0.1-23-10.5-22.8-23.3
	C271.6,76.6,281.9,66.6,294.7,66.7z"/>
</svg>
