<?xml version="1.0" encoding="utf-8"?>
<!-- Generator: Adobe Illustrator 25.0.0, SVG Export Plug-In . SVG Version: 6.00 Build 0)  -->
<svg version="1.1" id="Calque_1" xmlns="http://www.w3.org/2000/svg" xmlns:xlink="http://www.w3.org/1999/xlink" x="0px" y="0px"
	 viewBox="0 0 406 331.9" style="enable-background:new 0 0 406 331.9;" xml:space="preserve">
<style type="text/css">
	.st0{fill:#207D85;}
	.st1{fill:#04A9F3;}
</style>
<path class="st0" d="M406,40.8c-9.9,15.2-22.3,28-36.7,38.9c-2.9,2.2-3.8,4.3-3.7,7.9c1,38.7-7.4,75.4-24.1,110.3
	c-20,41.6-49.1,75.3-88.5,99.7c-28,17.3-58.4,27.6-91,32c-23,3.1-45.9,3.1-68.8-0.2c-33.2-4.8-64-16-92.4-34
	c-0.2-0.1-0.3-0.4-0.8-0.9c45.1,4.1,85.6-6.9,122.7-34.7c-6.3-0.5-11.6-0.9-16.7-2.1c-28.7-7.2-48.6-24.6-59.9-51.9
	c-1.7-4.2-1.4-4.4,3.2-3.7c10,1.4,19.9,0.8,29.7-1.3c0.6-0.1,1.2-0.5,2-0.8C33,188,13.6,145.2,15.7,117.2
	c11.3,5.7,23.1,9.5,36.9,9.8c-18.3-13.3-29.9-30-34.6-51.2c-4.7-21.1-1.4-41,9.1-59.9c1.5,0.3,2.1,1.5,2.8,2.4
	c35,41.2,79,67.7,131.7,79.6c11.7,2.6,23.6,3.9,35.5,4.9c3,0.2,2.8-0.8,2.4-3.1c-4.7-31.2,3.7-58.1,27.6-79.1
	c19.3-17,42.3-23.3,67.8-19.5c17.8,2.7,33,10.5,45.8,23.2c1.6,1.6,2.9,2,5.2,1.5c16.2-3.6,31.6-9.3,46.1-17.3c1-0.6,2.1-1.1,3.9-2
	c-6.4,19.5-18.2,33.8-34.4,45c5.1,0.2,10-1,14.8-2.1c4.9-1.2,9.8-2.5,14.6-4c4.9-1.6,9.8-3.4,14.6-5.2
	C405.6,40.4,405.8,40.6,406,40.8z"/>
<path class="st1" d="M405.5,40.2c0.3,0,0.6-0.1,0.9-0.1c-0.1,0.2-0.3,0.5-0.4,0.7C405.8,40.6,405.6,40.4,405.5,40.2z"/>
</svg>
